<?xml version="1.0" standalone="no"?>
<!DOCTYPE svg PUBLIC "-//W3C//DTD SVG 20010904//EN"
 "http://www.w3.org/TR/2001/REC-SVG-20010904/DTD/svg10.dtd">
<svg version="1.0" xmlns="http://www.w3.org/2000/svg"
 width="1600.000000pt" height="1600.000000pt" viewBox="0 0 1600.000000 1600.000000"
 preserveAspectRatio="xMidYMid meet">
<metadata>
Created by potrace 1.11, written by Peter Selinger 2001-2013
</metadata>
<g transform="translate(0.000000,1600.000000) scale(0.100000,-0.100000)"
fill="#000000" stroke="none">
<path d="M6901 13224 c-17 -14 -35 -42 -41 -62 -11 -40 -12 -3274 -1 -3710 l6
-244 55 -23 c142 -60 446 -133 655 -157 140 -16 516 -16 665 1 275 30 656 106
868 172 l32 11 0 1974 c0 1746 -2 1978 -15 2004 -33 63 30 60 -1134 60 l-1059
0 -31 -26z"/>
<path d="M9088 8718 c-55 -29 -310 -114 -444 -148 -619 -160 -1180 -119 -1698
123 l-88 41 -22 -25 c-11 -14 -59 -72 -106 -129 -84 -103 -190 -232 -472 -576
-807 -982 -890 -1087 -885 -1108 4 -19 83 -302 353 -1256 97 -342 242 -854
358 -1265 35 -126 70 -251 77 -278 6 -26 14 -49 18 -51 4 -3 67 -18 141 -35
1078 -245 2178 -251 3335 -18 l160 32 33 115 c18 63 118 419 223 790 105 371
238 842 295 1045 58 204 120 424 139 490 18 66 54 193 80 283 25 90 42 168 38
175 -6 11 -261 323 -663 812 -86 105 -207 253 -270 330 -63 77 -155 190 -205
250 -50 61 -149 181 -219 268 -71 86 -131 156 -135 156 -3 -1 -23 -10 -43 -21z
m57 -803 c131 -158 798 -974 874 -1067 l64 -79 -56 -197 c-31 -108 -110 -388
-176 -622 -66 -234 -168 -594 -226 -800 -58 -206 -124 -438 -145 -514 -22 -76
-41 -140 -42 -141 -5 -4 -328 -64 -428 -79 -367 -57 -559 -71 -990 -71 -451 0
-635 14 -1040 80 -154 25 -417 79 -424 86 -4 4 -34 109 -411 1449 -187 662
-225 807 -216 823 12 18 757 930 988 1209 l114 137 62 -23 c34 -13 117 -38
185 -55 466 -121 925 -103 1552 62 l125 33 50 -61 c27 -33 90 -109 140 -170z"/>
<path d="M8850 7803 c-14 -2 -90 -17 -170 -33 -311 -62 -351 -65 -790 -65
-295 0 -424 4 -475 13 -141 27 -253 52 -279 62 -15 5 -29 10 -31 10 -4 0 -97
-112 -260 -315 -188 -234 -255 -316 -289 -355 -53 -61 -86 -104 -86 -110 0 -7
57 -19 290 -59 282 -49 488 -72 815 -91 472 -27 1112 3 1688 80 237 32 278 38
283 42 2 3 -48 70 -113 149 -65 79 -154 189 -198 244 -44 55 -113 141 -154
190 -40 50 -90 110 -110 135 -70 86 -94 107 -121 103z"/>
<path d="M6250 6604 c0 -5 14 -61 31 -124 17 -63 33 -126 36 -140 3 -14 9 -29
13 -35 4 -5 10 -23 14 -40 4 -16 16 -61 27 -100 60 -208 130 -464 136 -500 2
-16 23 -93 44 -170 22 -77 49 -171 60 -210 26 -91 40 -117 64 -122 11 -2 49
-7 85 -13 36 -5 74 -11 85 -14 11 -2 31 -5 45 -6 14 -1 19 -4 12 -7 -7 -3 -49
0 -93 7 -89 12 -111 5 -101 -32 4 -15 2 -19 -7 -14 -16 10 -10 49 9 58 11 5
10 7 -5 7 -11 0 -27 -4 -35 -9 -12 -8 -12 -10 -1 -10 8 0 12 -3 9 -6 -9 -8 12
-77 27 -89 19 -14 35 -81 23 -93 -6 -6 -6 -12 1 -16 6 -4 11 -22 12 -39 0 -18
4 -40 8 -50 6 -17 8 -16 20 6 10 18 10 30 2 45 -14 27 -14 45 1 40 17 -6 20
-78 4 -110 -11 -22 -11 -26 0 -21 7 2 15 12 17 21 3 12 5 11 6 -5 0 -12 4 -23
9 -26 4 -2 1 -2 -5 -1 -7 2 -13 -1 -13 -7 0 -8 15 -9 45 -4 34 5 45 3 43 -6
-4 -17 91 -34 210 -38 13 -1 20 -5 17 -11 -4 -6 11 -8 40 -5 28 3 44 1 40 -5
-3 -6 -2 -10 4 -10 5 0 11 5 13 10 2 7 24 8 63 3 l60 -8 -45 -6 -45 -6 55 -2
c30 -1 66 -4 80 -6 22 -5 22 -4 5 4 -17 8 -16 10 12 10 33 1 53 -13 31 -22 -8
-3 -6 -6 5 -6 9 -1 17 3 17 7 0 5 14 6 31 4 22 -3 27 -7 18 -13 -10 -6 -5 -9
16 -9 130 -2 310 -12 355 -20 61 -10 140 -9 140 2 0 4 80 7 178 7 238 0 395
10 383 25 -12 15 17 18 154 19 76 0 96 2 63 6 -68 10 -69 19 -1 17 32 0 72 2
88 7 29 7 29 7 10 -9 -18 -15 -18 -16 -2 -10 10 3 33 7 50 7 l32 1 -30 8 c-39
10 -39 10 84 16 57 3 113 10 125 14 13 6 3 7 -29 3 -46 -5 -63 3 -19 10 10 1
25 6 32 11 8 5 24 3 37 -4 29 -16 72 -6 79 18 14 49 17 84 8 78 -5 -3 -12 7
-15 22 -3 15 -8 37 -12 50 -4 13 -3 22 3 22 6 0 13 -18 17 -40 8 -47 16 -50
32 -12 28 66 45 161 34 194 -11 32 -12 33 -58 29 -27 -2 -46 -1 -43 2 3 3 34
7 69 10 35 3 70 12 76 19 12 12 135 439 135 466 0 11 39 155 110 402 10 36 20
74 23 85 3 11 19 65 35 120 27 90 59 205 67 245 2 8 8 28 14 44 7 16 9 32 5
35 -4 3 -9 0 -11 -7 -3 -6 -8 -10 -13 -7 -4 3 -30 1 -57 -5 -58 -11 -305 -47
-388 -55 -33 -4 -85 -11 -115 -15 -30 -5 -131 -16 -225 -25 -93 -9 -192 -18
-220 -20 -133 -13 -178 -16 -427 -26 -339 -14 -797 1 -1110 37 -120 13 -239
28 -265 33 -27 5 -82 15 -123 21 -41 6 -118 21 -170 32 -52 11 -106 22 -120
24 -14 3 -41 9 -60 14 -19 5 -62 14 -95 21 -33 7 -66 17 -72 22 -7 5 -13 6
-13 1z m50 -69 c0 -8 -4 -15 -10 -15 -5 0 -10 7 -10 15 0 8 5 15 10 15 6 0 10
-7 10 -15z m17 -17 c-3 -8 -6 -5 -6 6 -1 11 2 17 5 13 3 -3 4 -12 1 -19z m160
-4 c-3 -3 -12 -4 -19 -1 -8 3 -5 6 6 6 11 1 17 -2 13 -5z m13 -24 c-8 -5 -19
-10 -25 -10 -5 0 -3 5 5 10 8 5 20 10 25 10 6 0 3 -5 -5 -10z m3103 3 c-7 -2
-19 -2 -25 0 -7 3 -2 5 12 5 14 0 19 -2 13 -5z m101 -9 c3 -8 2 -12 -4 -9 -6
3 -10 10 -10 16 0 14 7 11 14 -7z m-3387 -16 c-3 -8 -6 -5 -6 6 -1 11 2 17 5
13 3 -3 4 -12 1 -19z m686 -35 c-7 -2 -19 -2 -25 0 -7 3 -2 5 12 5 14 0 19 -2
13 -5z m2054 -9 c-3 -3 -12 -4 -19 -1 -8 3 -5 6 6 6 11 1 17 -2 13 -5z m-1814
-21 c-7 -2 -19 -2 -25 0 -7 3 -2 5 12 5 14 0 19 -2 13 -5z m-866 -125 c-3 -8
-6 -5 -6 6 -1 11 2 17 5 13 3 -3 4 -12 1 -19z m3270 -25 c-3 -10 -5 -4 -5 12
0 17 2 24 5 18 2 -7 2 -21 0 -30z m-2770 -179 c-3 -3 -12 -4 -19 -1 -8 3 -5 6
6 6 11 1 17 -2 13 -5z m2440 0 c-3 -3 -12 -4 -19 -1 -8 3 -5 6 6 6 11 1 17 -2
13 -5z m260 -36 c-3 -7 -5 -2 -5 12 0 14 2 19 5 13 2 -7 2 -19 0 -25z m-30
-130 c-3 -8 -6 -5 -6 6 -1 11 2 17 5 13 3 -3 4 -12 1 -19z m-57 -188 c0 -13
-1 -13 -10 0 -5 8 -10 22 -10 30 0 13 1 13 10 0 5 -8 10 -22 10 -30z m-2955
10 c3 -5 1 -10 -4 -10 -6 0 -11 5 -11 10 0 6 2 10 4 10 3 0 8 -4 11 -10z
m2926 -53 c-10 -9 -11 -8 -5 6 3 10 9 15 12 12 3 -3 0 -11 -7 -18z m-293 -554
c-25 -3 -38 -9 -38 -19 0 -11 -17 -14 -80 -14 -47 0 -80 -4 -80 -10 0 -6 -32
-9 -82 -8 -46 2 -162 0 -258 -3 -96 -4 -155 -5 -130 -3 97 8 348 27 395 30 50
3 82 7 185 23 30 5 71 8 90 8 l35 0 -37 -4z m-2178 -13 c0 -5 -4 -10 -10 -10
-5 0 -10 5 -10 10 0 6 5 10 10 10 6 0 10 -4 10 -10z m265 -25 c87 -8 183 -15
214 -16 47 -1 51 -2 25 -9 -18 -4 -58 -3 -90 2 -33 4 -126 9 -209 10 -82 1
-138 5 -125 8 36 9 9 21 -29 14 -84 -17 -8 -39 98 -28 46 4 71 3 75 -5 5 -7
-8 -9 -41 -6 -33 3 -39 2 -18 -3 19 -5 -11 -7 -76 -7 -59 0 -102 3 -95 7 8 6
8 8 -1 8 -22 0 -14 29 10 34 12 3 31 7 42 10 11 2 30 2 41 0 12 -2 93 -11 179
-19z m1791 -13 c-7 -12 -102 -30 -156 -30 -35 0 -40 2 -20 8 24 7 23 8 -10 12
-19 3 -6 3 30 2 36 -2 81 0 100 5 47 12 62 13 56 3z m259 -32 c-9 -41 -17 -33
-9 9 4 17 9 30 11 27 3 -2 2 -19 -2 -36z m-1750 20 c-3 -5 37 -8 107 -5 67 2
102 1 87 -4 -26 -8 -244 -12 -221 -4 6 3 10 9 6 14 -3 5 2 9 11 9 9 0 14 -4
10 -10z m894 -4 c-9 -9 -187 -14 -229 -6 -33 5 -9 8 94 9 77 0 137 -1 135 -3z
m274 -3 c-7 -2 -21 -2 -30 0 -10 3 -4 5 12 5 17 0 24 -2 18 -5z m80 0 c-7 -2
-19 -2 -25 0 -7 3 -2 5 12 5 14 0 19 -2 13 -5z m-636 -9 c-3 -3 -12 -4 -19 -1
-8 3 -5 6 6 6 11 1 17 -2 13 -5z m320 0 c-3 -3 -12 -4 -19 -1 -8 3 -5 6 6 6
11 1 17 -2 13 -5z m76 -1 c-7 -2 -19 -2 -25 0 -7 3 -2 5 12 5 14 0 19 -2 13
-5z m80 0 c-7 -2 -19 -2 -25 0 -7 3 -2 5 12 5 14 0 19 -2 13 -5z m-555 -50
c-43 -2 -113 -2 -155 0 -43 1 -8 3 77 3 85 0 120 -2 78 -3z m1198 -28 c-6 -24
-26 -36 -26 -15 0 6 5 10 10 10 6 0 10 10 10 22 0 12 3 19 6 15 4 -3 4 -18 0
-32z m-2436 -35 c0 -11 -4 -20 -10 -20 -5 0 -10 5 -10 11 0 5 -4 7 -10 4 -5
-3 -10 1 -10 9 0 9 9 16 20 16 13 0 20 -7 20 -20z m2340 -1 c0 -11 -4 -17 -10
-14 -5 3 -10 13 -10 21 0 8 5 14 10 14 6 0 10 -9 10 -21z m17 -1 c-3 -8 -6 -5
-6 6 -1 11 2 17 5 13 3 -3 4 -12 1 -19z m-2440 -70 c-3 -8 -6 -5 -6 6 -1 11 2
17 5 13 3 -3 4 -12 1 -19z m2469 -39 c-3 -29 -19 -49 -41 -49 -5 1 -2 5 8 11
10 6 17 22 17 39 0 17 4 30 10 30 5 0 8 -14 6 -31z m-2126 -29 c0 -5 -4 -10
-10 -10 -5 0 -10 5 -10 10 0 6 5 10 10 10 6 0 10 -4 10 -10z m95 0 c4 -7 -6
-10 -29 -8 -20 1 -36 6 -36 10 0 12 58 10 65 -2z m1650 0 c3 -5 -1 -10 -9 -10
-9 0 -16 5 -16 10 0 6 4 10 9 10 6 0 13 -4 16 -10z m275 0 c0 -5 -19 -10 -42
-9 -37 1 -39 2 -18 9 36 12 60 12 60 0z m-2167 -7 c-7 -2 -19 -2 -25 0 -7 3
-2 5 12 5 14 0 19 -2 13 -5z m87 -3 c0 -12 -17 -12 -45 0 -17 7 -15 9 13 9 17
1 32 -3 32 -9z m1695 -15 c6 -2 -11 -4 -37 -4 -27 -1 -48 3 -48 7 0 7 62 5 85
-3z m-1386 -6 c-7 -4 -21 -6 -31 -4 -10 2 -18 -2 -18 -8 0 -7 -4 -6 -10 3 -8
12 -10 12 -10 1 0 -8 -3 -12 -6 -8 -13 13 6 22 46 23 23 1 36 -2 29 -7z m126
-8 c-3 -6 -11 -11 -16 -11 -5 0 -4 6 3 14 14 16 24 13 13 -3z m1035 9 c0 13 1
13 10 0 9 -13 10 -13 10 0 0 13 1 13 10 0 9 -13 10 -13 10 0 0 13 1 13 10 0 9
-13 10 -13 10 0 0 13 1 13 10 0 5 -8 10 -10 10 -3 0 6 8 10 18 8 9 -2 20 -4
25 -4 4 -1 7 -4 7 -8 0 -7 -130 -11 -153 -5 -5 1 -5 7 -1 13 4 8 9 7 15 -2 7
-11 9 -11 9 1z m-1470 -9 c0 -5 -9 -7 -20 -4 -11 3 -20 7 -20 9 0 2 9 4 20 4
11 0 20 -4 20 -9z m317 -37 c-3 -3 -12 -4 -19 -1 -8 3 -5 6 6 6 11 1 17 -2 13
-5z m1126 -10 c-4 -10 -13 -14 -27 -10 -11 3 -30 6 -41 7 -11 1 0 5 25 9 25 4
46 8 47 8 1 1 0 -5 -4 -14z m156 12 c-12 -10 -79 -16 -79 -6 0 5 19 10 42 10
23 0 39 -2 37 -4z m-1046 -13 c-7 -2 -19 -2 -25 0 -7 3 -2 5 12 5 14 0 19 -2
13 -5z m-13 -23 c21 -7 19 -8 -17 -9 -24 -1 -43 4 -43 9 0 12 24 12 60 0z
m940 0 c0 -5 -10 -10 -22 -9 -22 0 -22 1 -3 9 11 5 21 9 23 9 1 1 2 -3 2 -9z
m-87 -7 c-7 -2 -19 -2 -25 0 -7 3 -2 5 12 5 14 0 19 -2 13 -5z"/>
<path d="M9316 5115 c4 -8 8 -15 10 -15 2 0 4 7 4 15 0 8 -4 15 -10 15 -5 0
-7 -7 -4 -15z"/>
<path d="M6701 5014 c0 -11 3 -14 6 -6 3 7 2 16 -1 19 -3 4 -6 -2 -5 -13z"/>
<path d="M8620 4680 c-20 -6 -21 -8 -5 -8 11 0 31 4 45 8 20 6 21 8 5 8 -11 0
-31 -4 -45 -8z"/>
</g>
</svg>
